<?xml version="1.0" encoding="utf-8"?>
<!-- Generator: Adobe Illustrator 24.2.0, SVG Export Plug-In . SVG Version: 6.00 Build 0)  -->
<svg version="1.1" id="圖層_1" xmlns="http://www.w3.org/2000/svg" xmlns:xlink="http://www.w3.org/1999/xlink" x="0px" y="0px"
	 viewBox="0 0 72 72" style="enable-background:new 0 0 72 72;" xml:space="preserve">
<style type="text/css">
	.st0{fill:#1DA1F2;}
	.st1{fill:#FFFFFF;}
</style>
<g>
	<g id="Dark_Blue">
		<circle class="st0" cx="36" cy="36" r="36"/>
	</g>
	<g id="Logo__x2014__FIXED">
		<path class="st1" d="M29.4,55c16,0,24.7-13.2,24.7-24.7c0-0.4,0-0.8,0-1.1c1.7-1.2,3.2-2.8,4.3-4.5c-1.5,0.7-3.2,1.2-5,1.4
			c1.8-1.1,3.2-2.8,3.8-4.8c-1.7,1-3.5,1.7-5.5,2.1c-1.6-1.7-3.8-2.7-6.3-2.7c-4.8,0-8.7,3.9-8.7,8.7c0,0.7,0.1,1.3,0.2,2
			c-7.2-0.4-13.6-3.8-17.9-9.1c-0.7,1.3-1.2,2.8-1.2,4.4c0,3,1.5,5.7,3.9,7.2c-1.4,0-2.8-0.4-3.9-1.1c0,0,0,0.1,0,0.1
			c0,4.2,3,7.7,7,8.5c-0.7,0.2-1.5,0.3-2.3,0.3c-0.6,0-1.1-0.1-1.6-0.2c1.1,3.5,4.3,6,8.1,6c-3,2.3-6.7,3.7-10.8,3.7
			c-0.7,0-1.4,0-2.1-0.1C19.9,53.5,24.5,55,29.4,55"/>
	</g>
</g>
</svg>
