<svg id="Layer_1" data-name="Layer 1" xmlns="http://www.w3.org/2000/svg" viewBox="0 0 500 500"><defs><style>.cls-1{fill:#3e82f1;}.cls-1,.cls-2,.cls-3,.cls-4{fill-rule:evenodd;}.cls-2{fill:#32a753;}.cls-3{fill:#f9bb00;}.cls-4{fill:#e74133;}</style></defs><title>icon_google</title><path class="cls-1" d="M470.5,255.11a258.48,258.48,0,0,0-4.09-46H254.5v87H375.59A103.51,103.51,0,0,1,330.69,364v56.45h72.72C446,381.32,470.5,323.64,470.5,255.11Zm0,0"/><path class="cls-2" d="M254.5,475c60.75,0,111.68-20.15,148.91-54.51L330.69,364c-20.15,13.5-45.92,21.48-76.19,21.48-58.6,0-108.21-39.58-125.9-92.76H53.43V351A224.91,224.91,0,0,0,254.5,475Zm0,0"/><path class="cls-3" d="M128.6,292.75a133,133,0,0,1,0-85.5V149H53.43a225.28,225.28,0,0,0,0,202.09l75.17-58.3Zm0,0"/><path class="cls-4" d="M254.5,114.49c33,0,62.69,11.35,86,33.65L405,83.6C366.08,47.3,315.15,25,254.5,25A224.91,224.91,0,0,0,53.43,149l75.17,58.29c17.69-53.18,67.3-92.76,125.9-92.76Zm0,0"/></svg>