<svg id="圖層_1" data-name="圖層 1" xmlns="http://www.w3.org/2000/svg" xmlns:xlink="http://www.w3.org/1999/xlink" viewBox="0 0 72 72"><defs><style>.cls-1{fill:url(#未命名漸層_4);}.cls-2{fill:url(#未命名漸層_2);}.cls-3{fill:#fff;}</style><radialGradient id="未命名漸層_4" cx="11.07" cy="72.25" r="91.92" gradientUnits="userSpaceOnUse"><stop offset="0.09" stop-color="#fa8f21"/><stop offset="0.78" stop-color="#d82d7e"/></radialGradient><radialGradient id="未命名漸層_2" cx="15.81" cy="71.99" r="91.92" gradientUnits="userSpaceOnUse"><stop offset="0.64" stop-color="#8c3aaa" stop-opacity="0"/><stop offset="1" stop-color="#8c3aaa"/></radialGradient></defs><circle class="cls-1" cx="36" cy="36" r="36"/><circle class="cls-2" cx="36" cy="36" r="36"/><path class="cls-3" d="M35.47,19c5.34,0,6,0,8.08.12a10.87,10.87,0,0,1,3.71.69,6.1,6.1,0,0,1,2.3,1.49,6.2,6.2,0,0,1,1.5,2.3,11.25,11.25,0,0,1,.69,3.71c.1,2.11.12,2.75.12,8.09s0,6-.12,8.08a11.13,11.13,0,0,1-.69,3.71,6.66,6.66,0,0,1-3.8,3.8,11.13,11.13,0,0,1-3.71.69c-2.11.09-2.74.11-8.08.11s-6,0-8.08-.11A11.27,11.27,0,0,1,23.67,51a6.2,6.2,0,0,1-2.3-1.5,6.1,6.1,0,0,1-1.49-2.3,10.87,10.87,0,0,1-.69-3.71c-.1-2.11-.12-2.74-.12-8.08s0-6,.12-8.09a11,11,0,0,1,.69-3.71,6.56,6.56,0,0,1,3.79-3.79,11,11,0,0,1,3.72-.69C29.5,19,30.13,19,35.47,19m0-3.6c-5.43,0-6.11,0-8.25.12a14.31,14.31,0,0,0-4.85.93,10.2,10.2,0,0,0-5.85,5.85,14.56,14.56,0,0,0-.93,4.85c-.1,2.13-.12,2.81-.12,8.25s0,6.11.12,8.24a14.63,14.63,0,0,0,.93,4.86,10.27,10.27,0,0,0,5.85,5.85,14.82,14.82,0,0,0,4.85.93c2.14.09,2.82.12,8.25.12s6.11,0,8.24-.12a14.88,14.88,0,0,0,4.86-.93,10.27,10.27,0,0,0,5.85-5.85,14.88,14.88,0,0,0,.93-4.86c.1-2.13.12-2.81.12-8.24s0-6.12-.12-8.25a14.82,14.82,0,0,0-.93-4.85,10.2,10.2,0,0,0-5.85-5.85,14.38,14.38,0,0,0-4.86-.93c-2.13-.1-2.81-.12-8.24-.12Z"/><path class="cls-3" d="M35.47,25.09A10.27,10.27,0,1,0,45.74,35.36,10.27,10.27,0,0,0,35.47,25.09Zm0,16.93a6.67,6.67,0,1,1,6.67-6.66A6.67,6.67,0,0,1,35.47,42Z"/><circle class="cls-3" cx="46.15" cy="24.68" r="2.4"/></svg>