<?xml version="1.0" encoding="utf-8"?>
<!-- Generator: Adobe Illustrator 23.0.3, SVG Export Plug-In . SVG Version: 6.00 Build 0)  -->
<svg version="1.1" id="圖層_1" xmlns="http://www.w3.org/2000/svg" xmlns:xlink="http://www.w3.org/1999/xlink" x="0px" y="0px"
	 viewBox="0 0 100 70" style="enable-background:new 0 0 100 70;" xml:space="preserve">
<style type="text/css">
	.st0{fill:#FCFCFC;}
	.st1{fill:#005098;}
	.st2{fill:#F6A500;}
	.st3{fill:#0A5296;}
	.st4{fill:#F4A428;}
</style>
<title>img_visa</title>
<g>
	<rect y="15" class="st0" width="100" height="40"/>
	<g>
		<polygon class="st1" points="36.8,47.2 40.8,22.9 47.3,22.9 43.2,47.2 		"/>
		<path class="st1" d="M66.7,23.5c-1.9-0.7-3.8-1-5.8-1c-6.4,0-10.9,3.3-10.9,8c0,3.5,3.2,5.4,5.7,6.6s3.4,2,3.3,3.1
			c0,1.6-2,2.4-3.9,2.4c-2.1,0-4.2-0.4-6.1-1.3l-0.9-0.3l-0.9,5.4c2.3,0.9,4.7,1.3,7.2,1.3c6.8,0,11.2-3.3,11.3-8.3
			c0-2.8-1.7-4.9-5.4-6.6c-2.3-1.1-3.7-1.9-3.6-3c0-1.1,1.2-2,3.7-2c1.7,0,3.3,0.3,4.8,0.9l0.6,0.3L66.7,23.5"/>
		<path class="st1" d="M83.3,22.9h-5c-1.5-0.2-2.8,0.7-3.4,2l-9.6,22.2h6.8c0,0,1.1-2.9,1.4-3.6h8.3c0.2,0.8,0.8,3.6,0.8,3.6h5.9
			L83.3,22.9 M75.3,38.6l2.6-6.8c0,0,0.5-1.5,0.9-2.3l0.4,2l1.4,7L75.3,38.6z"/>
		<path class="st1" d="M31.3,22.9L25,39.5l-0.7-3.4c-1.6-4.4-4.9-8.1-9-10.2l5.8,21.2H28l10.2-24.2L31.3,22.9"/>
		<path class="st2" d="M19.1,22.9H8.7l-0.1,0.5c8.1,2,13.5,6.8,15.7,12.7L22,25C21.7,23.6,20.4,22.8,19.1,22.9"/>
	</g>
	<path class="st3" d="M100,15H0V8c0-4.4,3.6-8,8-8h84c4.4,0,8,3.6,8,8V15z"/>
	<path class="st4" d="M92,70H8c-4.4,0-8-3.6-8-8v-7h100v7C100,66.4,96.4,70,92,70z"/>
</g>
</svg>
