<svg xmlns="http://www.w3.org/2000/svg" xmlns:xlink="http://www.w3.org/1999/xlink" width="100" height="100" viewBox="0 0 100 100">
  <defs>
    <clipPath id="clip-img_line">
      <rect width="100" height="100"/>
    </clipPath>
  </defs>
  <g id="img_line" clip-path="url(#clip-img_line)">
    <g id="Group_13" data-name="Group 13" transform="translate(-800 -440)">
      <circle id="Ellipse_5" data-name="Ellipse 5" cx="50" cy="50" r="50" transform="translate(800 440)" fill="#4cc764"/>
      <g id="Group_12" data-name="Group 12" transform="translate(816.587 460)">
        <g id="Group_11" data-name="Group 11">
          <g id="Group_9" data-name="Group 9">
            <path id="Path_13" data-name="Path 13" d="M919.836,531.088c0-14.936-14.974-27.088-33.38-27.088s-33.379,12.152-33.379,27.088c0,13.39,11.875,24.6,27.916,26.724,1.087.235,2.566.717,2.94,1.646a6.859,6.859,0,0,1,.108,3.018s-.392,2.355-.477,2.857c-.146.844-.671,3.3,2.891,1.8s19.223-11.319,26.226-19.38h0C917.518,542.449,919.836,537.065,919.836,531.088Z" transform="translate(-853.078 -504)" fill="#fff"/>
          </g>
          <g id="Group_10" data-name="Group 10" transform="translate(10.95 19.87)">
            <path id="Path_14" data-name="Path 14" d="M1009.137,583.427a.637.637,0,0,0,.637-.637v-2.367a.639.639,0,0,0-.637-.637h-6.373v-2.458h6.373a.637.637,0,0,0,.637-.637v-2.367a.639.639,0,0,0-.637-.638h-6.373v-2.458h6.373a.637.637,0,0,0,.637-.637v-2.367a.639.639,0,0,0-.637-.637H999.76a.637.637,0,0,0-.637.637v.014h0v14.541h0v.01a.637.637,0,0,0,.637.637h9.377Z" transform="translate(-964.433 -567.585)" fill="#4cc764"/>
            <path id="Path_15" data-name="Path 15" d="M898.133,583.427a.638.638,0,0,0,.637-.637v-2.367a.639.639,0,0,0-.637-.637H891.76V568.222a.639.639,0,0,0-.638-.637h-2.367a.637.637,0,0,0-.637.637v14.556h0v.01a.637.637,0,0,0,.637.637h9.378Z" transform="translate(-888.118 -567.585)" fill="#4cc764"/>
            <rect id="Rectangle_1" data-name="Rectangle 1" width="3.642" height="15.842" rx="1.821" transform="translate(12.656)" fill="#4cc764"/>
            <path id="Path_16" data-name="Path 16" d="M960.757,567.585h-2.367a.637.637,0,0,0-.637.637v8.652l-6.665-9a.581.581,0,0,0-.051-.065l0,0c-.012-.014-.025-.027-.039-.04l-.012-.011-.035-.029-.017-.013-.034-.023-.019-.012-.035-.019-.021-.01-.037-.016-.021-.008-.039-.013-.022-.005-.038-.009-.027,0-.035,0-.034,0h-2.376a.637.637,0,0,0-.637.637V582.79a.637.637,0,0,0,.637.637h2.367a.637.637,0,0,0,.637-.637v-8.65l6.674,9.012a.644.644,0,0,0,.164.16l.008.005.04.024.018.01.031.015.031.013.02.007.044.014.009,0a.655.655,0,0,0,.167.022h2.354a.637.637,0,0,0,.637-.637V568.222A.637.637,0,0,0,960.757,567.585Z" transform="translate(-928.981 -567.585)" fill="#4cc764"/>
          </g>
        </g>
      </g>
    </g>
  </g>
</svg>
