<svg xmlns="http://www.w3.org/2000/svg" xmlns:xlink="http://www.w3.org/1999/xlink" width="100" height="100" viewBox="0 0 100 100">
  <defs>
    <clipPath id="clip-img_instagram">
      <rect width="100" height="100"/>
    </clipPath>
  </defs>
  <g id="img_instagram" clip-path="url(#clip-img_instagram)">
    <g id="Group_15" data-name="Group 15">
      <circle id="Ellipse_7" data-name="Ellipse 7" cx="50" cy="50" r="50" fill="#c13584"/>
      <g id="Group_2" data-name="Group 2" transform="translate(20 20)">
        <path id="Path_3" data-name="Path 3" d="M34.079,9.485c8.01,0,8.959.03,12.122.175a16.6,16.6,0,0,1,5.571,1.033,9.935,9.935,0,0,1,5.694,5.694A16.6,16.6,0,0,1,58.5,21.956c.144,3.164.175,4.112.175,12.123s-.03,8.959-.175,12.122a16.6,16.6,0,0,1-1.033,5.571,9.935,9.935,0,0,1-5.694,5.694A16.6,16.6,0,0,1,46.2,58.5c-3.163.144-4.112.175-12.122.175s-8.96-.03-12.122-.175a16.6,16.6,0,0,1-5.571-1.033,9.935,9.935,0,0,1-5.694-5.694A16.6,16.6,0,0,1,9.659,46.2c-.144-3.163-.175-4.112-.175-12.123s.03-8.959.175-12.122a16.6,16.6,0,0,1,1.033-5.571,9.935,9.935,0,0,1,5.694-5.694,16.6,16.6,0,0,1,5.571-1.033c3.164-.144,4.112-.175,12.123-.175m0-5.406c-8.148,0-9.169.035-12.369.181a22.02,22.02,0,0,0-7.282,1.394,15.341,15.341,0,0,0-8.774,8.774A22.02,22.02,0,0,0,4.26,21.71c-.146,3.2-.181,4.221-.181,12.369s.035,9.169.181,12.369A22.02,22.02,0,0,0,5.654,53.73,15.34,15.34,0,0,0,14.428,62.5,22.02,22.02,0,0,0,21.71,63.9c3.2.146,4.221.181,12.369.181s9.169-.035,12.369-.181A22.02,22.02,0,0,0,53.73,62.5,15.34,15.34,0,0,0,62.5,53.73,22.02,22.02,0,0,0,63.9,46.448c.146-3.2.181-4.221.181-12.369S64.044,24.91,63.9,21.71A22.02,22.02,0,0,0,62.5,14.428,15.34,15.34,0,0,0,53.73,5.654,22.02,22.02,0,0,0,46.448,4.26c-3.2-.146-4.221-.181-12.369-.181Z" transform="translate(-4.079 -4.079)" fill="#fff"/>
        <path id="Path_4" data-name="Path 4" d="M142.04,126.635a15.405,15.405,0,1,0,15.405,15.405A15.405,15.405,0,0,0,142.04,126.635Zm0,25.405a10,10,0,1,1,10-10A10,10,0,0,1,142.04,152.04Z" transform="translate(-112.04 -112.04)" fill="#fff"/>
        <circle id="Ellipse_1" data-name="Ellipse 1" cx="3.6" cy="3.6" r="3.6" transform="translate(42.414 10.386)" fill="#fff"/>
      </g>
    </g>
  </g>
</svg>
