<?xml version="1.0" encoding="utf-8"?>
<!-- Generator: Adobe Illustrator 23.0.3, SVG Export Plug-In . SVG Version: 6.00 Build 0)  -->
<svg version="1.1" id="圖層_1" xmlns="http://www.w3.org/2000/svg" xmlns:xlink="http://www.w3.org/1999/xlink" x="0px" y="0px"
	 viewBox="0 0 100 70" style="enable-background:new 0 0 100 70;" xml:space="preserve">
<style type="text/css">
	.st0{fill:#192169;}
	.st1{fill:#FF0016;}
	.st2{fill:#FFA916;}
</style>
<title>img_master</title>
<g id="master">
	<path class="st0" d="M92,70H8c-4.4,0-8-3.6-8-8V8c0-4.4,3.6-8,8-8h84c4.4,0,8,3.6,8,8v54C100,66.4,96.4,70,92,70z"/>
	<path class="st1" d="M50,20.9c-7.8-8.9-21.4-9.8-30.2-2s-9.8,21.4-2,30.2s21.4,9.8,30.2,2c0.7-0.6,1.3-1.3,2-2
		C42.9,41.1,42.9,28.9,50,20.9z"/>
	<path class="st1" d="M50,20.9c-7.1,8.1-7.1,20.2,0,28.3C57.1,41.1,57.1,28.9,50,20.9z"/>
	<path class="st2" d="M66.1,13.6c-6.2,0-12,2.7-16.1,7.3c-0.9,1.1-1.8,2.2-2.5,3.4h4.9c0.8,1.4,1.4,2.8,1.9,4.3h-8.6
		c-0.4,1.4-0.7,2.8-0.9,4.3h10.5c0.1,0.7,0.1,1.4,0.1,2.1c0,0.7,0,1.4-0.1,2.1H44.8c0.2,1.5,0.5,2.9,0.9,4.3h8.6
		c-0.5,1.5-1.1,2.9-1.9,4.3h-4.8c0.7,1.2,1.5,2.4,2.5,3.4c7.8,8.9,21.3,9.8,30.2,2s9.8-21.3,2-30.2C78.1,16.2,72.2,13.6,66.1,13.6z"
		/>
</g>
</svg>
