<svg xmlns="http://www.w3.org/2000/svg" xmlns:xlink="http://www.w3.org/1999/xlink" width="154.223" height="25" viewBox="0 0 154.223 25">
                    <g>
                        <path d="M81.344,16.033,84.707.283h-3.92l-4.216,19.4A4.6,4.6,0,0,0,81.344,16.033Z" fill="#000" fill-opacity="0.4"></path>
                        <path d="M72.437.283h0l2.782,13.029L77.957.283Z" fill="#000" fill-opacity="0.4"></path>
                        <path d="M80.844,21.1A1.952,1.952,0,1,0,82.8,23.048,1.952,1.952,0,0,0,80.844,21.1" fill="#000" fill-opacity="0.4"></path>
                        <path d="M139.572,11.114Z" fill="#000" fill-opacity="0.4"></path>
                        <path d="M118.913,16.8h1.842l.911-2.019h2.8l.894,2.019h1.848l-4.149-8.909Z" fill="#000" fill-opacity="0.4"></path>
                        <path d="M150.075,7.887,145.927,16.8h1.842l.911-2.019h2.8l.894,2.019h1.847Z" fill="#000" fill-opacity="0.4"></path>
                        <path d="M91.637.283h-3.92L83.5,19.688a4.6,4.6,0,0,0,4.772-3.655Z" fill="#000" fill-opacity="0.4"></path>
                        <path d="M111.825,13.144,109.74,7.705l-1.981,5.467L106.022,8.51h-1.743l3.353,9.014,2.13-5.472,2.162,5.477,3.36-9.019H113.53Z" fill="#000" fill-opacity="0.4"></path>
                        <path d="M139.567,9.172a4.709,4.709,0,0,0-1.953-.794,4.79,4.79,0,0,0-.755-.061,4.484,4.484,0,0,0-1.667.32,4.1,4.1,0,0,0-1.958,1.578,4.293,4.293,0,0,0-.728,2.454,4.32,4.32,0,0,0,.723,2.46,4.01,4.01,0,0,0,2.8,1.793,5.561,5.561,0,0,0,.915.078,4.834,4.834,0,0,0,1.363-.194,3.87,3.87,0,0,0,1.186-.579l.093-.066V14.109q-.237.2-.454.386a4.328,4.328,0,0,1-.483.347,3.384,3.384,0,0,1-1.821.525,2.4,2.4,0,0,1-1.809-.75,2.7,2.7,0,0,1-.722-1.937,2.7,2.7,0,0,1,.739-1.974,2.572,2.572,0,0,1,1.925-.756,3.4,3.4,0,0,1,2.261.866l.354.3.1-1.87Z" fill="#000" fill-opacity="0.4"></path>
                        <path d="M89.588,21.1a1.952,1.952,0,1,0,1.952,1.952A1.952,1.952,0,0,0,89.588,21.1" fill="#000" fill-opacity="0.4"></path>
                        <path d="M93.454,3.663,90.035,19.688a4.6,4.6,0,0,0,4.773-3.655L97.695,2.471a.845.845,0,0,1,.726-.645l0,0h2.213L102.446.009h-4.22A4.6,4.6,0,0,0,93.454,3.663Z" fill="#000" fill-opacity="0.4"></path>
                        <path d="M3.327,9.173a2.132,2.132,0,0,0-1.083.28,2.191,2.191,0,0,0-.774.73V9.307H0v8.226H1.576v-3a3.016,3.016,0,0,0,.845.673,2,2,0,0,0,.895.2,2.271,2.271,0,0,0,1.767-.828,3.394,3.394,0,0,0,.729-2.32,3.3,3.3,0,0,0-.723-2.267A2.274,2.274,0,0,0,3.327,9.173Zm.516,4.536a1.138,1.138,0,0,1-.915.44,1.216,1.216,0,0,1-.97-.479,2.294,2.294,0,0,1-.4-1.484,1.99,1.99,0,0,1,.382-1.322,1.21,1.21,0,0,1,.959-.446,1.164,1.164,0,0,1,.932.455,2.157,2.157,0,0,1,.376,1.391,2.271,2.271,0,0,1-.365,1.445" fill="#000" fill-opacity="0.4"></path>
                        <path d="M10.228,9.173a3.257,3.257,0,0,0-1.585.387,2.663,2.663,0,0,0-1.1,1.122A3.228,3.228,0,0,0,7.159,12.2a3.617,3.617,0,0,0,.387,1.742,2.54,2.54,0,0,0,1.131,1.086,3.454,3.454,0,0,0,1.562.37,2.949,2.949,0,0,0,2.2-.889,3.07,3.07,0,0,0,.873-2.242,3.035,3.035,0,0,0-.865-2.219,2.975,2.975,0,0,0-2.216-.878m1.041,4.472a1.376,1.376,0,0,1-2.073,0,1.972,1.972,0,0,1-.421-1.358A1.974,1.974,0,0,1,9.2,10.929a1.376,1.376,0,0,1,2.073,0,1.965,1.965,0,0,1,.418,1.347,2,2,0,0,1-.418,1.369" fill="#000" fill-opacity="0.4"></path>
                        <path d="M20.417,13.213l-.993-3.9H17.9l-1.026,3.9-1.117-3.9H14.228l1.886,5.959h1.531l1.01-3.833,1.027,3.833H21.2L23.11,9.308H21.556Z" fill="#000" fill-opacity="0.4"></path>
                        <path d="M26.673,9.173a2.552,2.552,0,0,0-1.959.838,3.293,3.293,0,0,0-.774,2.32,3.41,3.41,0,0,0,.589,2.054,2.667,2.667,0,0,0,2.3,1.016,2.811,2.811,0,0,0,1.635-.452,2.577,2.577,0,0,0,.957-1.316l-1.571-.264a1.238,1.238,0,0,1-.382.651.963.963,0,0,1-.623.2,1.192,1.192,0,0,1-.908-.39,1.589,1.589,0,0,1-.382-1.091h3.95a3.888,3.888,0,0,0-.735-2.69,2.644,2.644,0,0,0-2.1-.878m-1.089,2.6a1.454,1.454,0,0,1,.331-1.021,1.138,1.138,0,0,1,1.672-.02,1.526,1.526,0,0,1,.354,1.041Z" fill="#000" fill-opacity="0.4"></path>
                        <path d="M33.324,9.364a2.54,2.54,0,0,0-.677.791V9.308H31.183v5.959h1.576V13.426a9.425,9.425,0,0,1,.132-2,1.24,1.24,0,0,1,.362-.659.872.872,0,0,1,.561-.183,1.389,1.389,0,0,1,.742.258l.487-1.374a2,2,0,0,0-1.037-.3A1.24,1.24,0,0,0,33.324,9.364Z" fill="#000" fill-opacity="0.4"></path>
                        <path d="M38.454,9.173a2.55,2.55,0,0,0-1.958.838,3.293,3.293,0,0,0-.774,2.32,3.41,3.41,0,0,0,.589,2.054,2.667,2.667,0,0,0,2.3,1.016,2.811,2.811,0,0,0,1.635-.452,2.577,2.577,0,0,0,.957-1.316l-1.571-.264a1.238,1.238,0,0,1-.382.651.963.963,0,0,1-.623.2,1.2,1.2,0,0,1-.909-.39,1.593,1.593,0,0,1-.381-1.091h3.95a3.888,3.888,0,0,0-.735-2.69,2.644,2.644,0,0,0-2.1-.878m-1.088,2.6a1.454,1.454,0,0,1,.331-1.021,1.138,1.138,0,0,1,1.672-.02,1.526,1.526,0,0,1,.354,1.041Z" fill="#000" fill-opacity="0.4"></path>
                        <path d="M46.92,10a2.229,2.229,0,0,0-1.728-.831,2.321,2.321,0,0,0-1.8.789,3.326,3.326,0,0,0-.713,2.3,3.367,3.367,0,0,0,.732,2.309,2.27,2.27,0,0,0,1.759.827,2.215,2.215,0,0,0,1-.249,2.366,2.366,0,0,0,.861-.761v.876H48.5V7.04H46.92Zm-.376,3.689a1.159,1.159,0,0,1-.926.463,1.192,1.192,0,0,1-1.066-.617,2.731,2.731,0,0,1-.264-1.381,2.016,2.016,0,0,1,.379-1.332,1.184,1.184,0,0,1,.94-.446,1.172,1.172,0,0,1,.948.451,2.34,2.34,0,0,1,.371,1.479A2.14,2.14,0,0,1,46.544,13.692Z" fill="#000" fill-opacity="0.4"></path>
                        <path d="M57.4,9.173a2.231,2.231,0,0,0-1.728.83V7.041H54.1v8.225H55.56v-.875a2.41,2.41,0,0,0,.856.754,2.173,2.173,0,0,0,1.007.256,2.269,2.269,0,0,0,1.765-.825,3.448,3.448,0,0,0,.726-2.351A3.265,3.265,0,0,0,59.2,9.961,2.325,2.325,0,0,0,57.4,9.173Zm.53,4.536a1.116,1.116,0,0,1-.889.446,1.247,1.247,0,0,1-1.089-.628,2.54,2.54,0,0,1-.292-1.369,2.028,2.028,0,0,1,.376-1.339,1.191,1.191,0,0,1,.943-.44,1.173,1.173,0,0,1,.948.452A2.325,2.325,0,0,1,58.3,12.3a2.195,2.195,0,0,1-.368,1.406" fill="#000" fill-opacity="0.4"></path>
                        <path d="M64,13.538,62.573,9.307H60.9l2.267,5.976a2.242,2.242,0,0,1-.4.822.99.99,0,0,1-.814.323,3.536,3.536,0,0,1-.667-.073l.14,1.234a4.151,4.151,0,0,0,.892.095,3.1,3.1,0,0,0,.805-.095,1.9,1.9,0,0,0,.6-.266,1.757,1.757,0,0,0,.432-.447,4.206,4.206,0,0,0,.395-.8l.376-1.038,2.1-5.735H65.389Z" fill="#000" fill-opacity="0.4"></path>
                    </g>
                </svg>