<svg xmlns="http://www.w3.org/2000/svg" width="19.955" height="19.013" viewBox="0 0 19.955 19.013">
  <g id="Group_16" data-name="Group 16" transform="translate(-365.967 -243.64)">
    <g id="TYPE_A" data-name="TYPE A" transform="translate(365.967 243.64)">
      <g id="Group_3" data-name="Group 3" transform="translate(0)">
        <path id="Path_2" data-name="Path 2" d="M400.99,269.745c0-4.464-4.476-8.1-9.978-8.1s-9.977,3.632-9.977,8.1c0,4,3.549,7.355,8.344,7.988.325.07.767.214.879.492a2.048,2.048,0,0,1,.032.9s-.117.7-.142.854c-.044.252-.2.987.864.538a32.221,32.221,0,0,0,7.84-5.793h0a7.2,7.2,0,0,0,2.139-4.982" transform="translate(-381.035 -261.648)" fill="#fff"/>
        <g id="Group_2" data-name="Group 2" transform="translate(3.273 5.939)">
          <path id="Path_3" data-name="Path 3" d="M410.153,285.4h-.7a.194.194,0,0,0-.194.194v4.348a.194.194,0,0,0,.194.194h.7a.194.194,0,0,0,.194-.194V285.6a.194.194,0,0,0-.194-.194" transform="translate(-405.476 -285.405)" fill="#00b900"/>
          <path id="Path_4" data-name="Path 4" d="M420.277,285.4h-.7a.194.194,0,0,0-.194.194v2.583l-1.992-2.69a.182.182,0,0,0-.015-.02h0l-.012-.012,0,0-.011-.009-.005,0-.01-.007-.006,0-.01-.006-.006,0-.011,0-.006,0-.012,0-.007,0-.011,0h-.735a.194.194,0,0,0-.194.194v4.348a.194.194,0,0,0,.194.194h.7a.194.194,0,0,0,.194-.194v-2.582l1.995,2.694a.192.192,0,0,0,.049.048l0,0,.012.007.005,0,.009,0,.009,0,.006,0,.013,0h0a.188.188,0,0,0,.05.007h.7a.194.194,0,0,0,.194-.194V285.6a.194.194,0,0,0-.194-.194" transform="translate(-410.783 -285.405)" fill="#00b900"/>
          <path id="Path_5" data-name="Path 5" d="M397.117,289.052h-1.9V285.6a.194.194,0,0,0-.194-.194h-.7a.194.194,0,0,0-.194.194v4.347h0a.193.193,0,0,0,.055.134l0,0,0,0a.193.193,0,0,0,.134.054h2.8a.194.194,0,0,0,.194-.194v-.7a.194.194,0,0,0-.194-.194" transform="translate(-394.127 -285.405)" fill="#00b900"/>
          <path id="Path_6" data-name="Path 6" d="M438.593,286.494a.194.194,0,0,0,.194-.194v-.7a.194.194,0,0,0-.194-.195h-2.8a.193.193,0,0,0-.135.055l0,0,0,0a.2.2,0,0,0-.054.134h0v4.347h0a.193.193,0,0,0,.054.134l0,0,0,0a.194.194,0,0,0,.134.054h2.8a.194.194,0,0,0,.194-.194v-.7a.194.194,0,0,0-.194-.194h-1.9v-.735h1.9a.194.194,0,0,0,.194-.194v-.7a.194.194,0,0,0-.194-.194h-1.9v-.735Z" transform="translate(-425.234 -285.405)" fill="#00b900"/>
        </g>
      </g>
    </g>
  </g>
</svg>
