<?xml version="1.0" encoding="utf-8"?>
<!-- Generator: Adobe Illustrator 23.0.3, SVG Export Plug-In . SVG Version: 6.00 Build 0)  -->
<svg version="1.1" id="圖層_1" xmlns="http://www.w3.org/2000/svg" xmlns:xlink="http://www.w3.org/1999/xlink" x="0px" y="0px"
	viewBox="0 0 100 70" style="enable-background:new 0 0 100 70;" xml:space="preserve">
<style type="text/css">
	.jcb0{fill:#E5E5E5;}
	.jcb1{fill:#FFFFFF;}
	.jcb2{fill:#0F6CAF;}
	.jcb3{fill:#DE0A25;}
	.jcb4{fill:#138E3B;}
</style>
<title>img_jcb</title>
<g>
	<g>
		<path class="jcb0" d="M92,70H8c-4.4,0-8-3.6-8-8V8c0-4.4,3.6-8,8-8h84c4.4,0,8,3.6,8,8v54C100,66.4,96.4,70,92,70z"/>
	</g>
	<g>
		<path class="jcb1" d="M77.3,59.3H11.1V25c0-7.9,6.4-14.3,14.3-14.3h63.4v37.2C88.8,54.2,83.8,59.3,77.3,59.3z"/>
		<path class="jcb2" d="M29.6,55H15.9V23.6c0-4.7,5.6-8.6,10.3-8.6h10.3v31.4C36.5,51.2,34.4,55,29.6,55z"/>
		<path class="jcb3" d="M53.6,55H39.9V23.6c0-4.7,5.6-8.6,10.3-8.6h10.3v31.4C60.5,51.2,58.4,55,53.6,55z"/>
		<path class="jcb4" d="M77.7,55H63.9V23.6c0-4.7,5.6-8.6,10.3-8.6h10.3v31.4C84.6,51.2,82.4,55,77.7,55z"/>
	</g>
</g>
</svg>
